<svg width="20" height="20" viewBox="0 0 20 20" fill="none" xmlns="http://www.w3.org/2000/svg">
<path fill-rule="evenodd" clip-rule="evenodd" d="M0 9.99927C0 4.48027 4.48 -0.000732422 10 -0.000732422C15.53 -0.000732422 20 4.48027 20 9.99927C20 15.5203 15.53 19.9993 10 19.9993C4.48 19.9993 0 15.5203 0 9.99927ZM9.12 6.20927C9.12 5.73027 9.52 5.32927 10 5.32927C10.48 5.32927 10.87 5.73027 10.87 6.20927V10.6293C10.87 11.1103 10.48 11.4993 10 11.4993C9.52 11.4993 9.12 11.1103 9.12 10.6293V6.20927ZM10.01 14.6803C9.52 14.6803 9.13 14.2803 9.13 13.8003C9.13 13.3203 9.52 12.9303 10 12.9303C10.49 12.9303 10.88 13.3203 10.88 13.8003C10.88 14.2803 10.49 14.6803 10.01 14.6803Z" fill="url(#paint0_linear_1874_4038)"/>
<defs>
<linearGradient id="paint0_linear_1874_4038" x1="10.2899" y1="14.5447" x2="1.21086" y2="-0.720873" gradientUnits="userSpaceOnUse">
<stop stop-color="#563C5C"/>
<stop offset="1" stop-color="#73507B"/>
</linearGradient>
</defs>
</svg>
