<svg width="428" height="603" viewBox="0 0 428 603" fill="none" xmlns="http://www.w3.org/2000/svg">
<path d="M0 84.2316C0 52.1417 0 36.0967 6.51972 24.6139C12.2634 14.498 21.3545 6.70131 32.2276 2.56646C44.5699 -2.12707 60.4274 0.318248 92.1425 5.20889C137.69 12.2325 160.463 15.7443 183.353 17.15C203.765 18.4035 224.235 18.4035 244.647 17.15C267.537 15.7443 290.31 12.2325 335.857 5.20889C367.573 0.318249 383.43 -2.12707 395.772 2.56646C406.646 6.70131 415.737 14.498 421.48 24.6139C428 36.0967 428 52.1417 428 84.2316V603H0V84.2316Z" fill="white"/>
</svg>
