<svg width="168" height="53" viewBox="0 0 168 53" fill="none" xmlns="http://www.w3.org/2000/svg">
<path d="M20.3283 16.9238C20.3068 17.4932 20.1081 17.9658 19.7321 18.3418C19.3561 18.7178 18.8781 18.9165 18.298 18.938L13.2546 18.9219V37.9839C11.9225 37.9839 10.7839 37.5166 9.83856 36.582C8.90399 35.6367 8.43671 34.498 8.43671 33.166V18.9219H3.39325C2.82391 18.9004 2.34589 18.7017 1.95917 18.3257C1.58319 17.9497 1.38983 17.4717 1.37909 16.8916C1.38983 16.3223 1.58319 15.8496 1.95917 15.4736C2.34589 15.0977 2.82391 14.8989 3.39325 14.8774L12.0944 14.8936H13.2546H18.3141C18.8835 14.915 19.3561 15.1138 19.7321 15.4897C20.1081 15.8657 20.3068 16.3438 20.3283 16.9238ZM25.5007 38.0161C27.9284 38.0161 30.007 37.1514 31.7365 35.4219C33.466 33.6924 34.3307 31.6138 34.3307 29.186C34.3307 26.7476 33.466 24.6636 31.7365 22.9341C30.007 21.2046 27.9284 20.3398 25.5007 20.3398C23.0622 20.3398 20.9782 21.2046 19.2487 22.9341C17.5192 24.6636 16.6545 26.7476 16.6545 29.186C16.6545 31.6138 17.5192 33.6924 19.2487 35.4219C20.9782 37.1514 23.0622 38.0161 25.5007 38.0161ZM25.5007 25.1738C26.5964 25.1738 27.5363 25.5659 28.3205 26.3501C29.1047 27.1343 29.4968 28.0796 29.4968 29.186C29.4968 30.2925 29.1047 31.2378 28.3205 32.022C27.5363 32.7954 26.5964 33.1821 25.5007 33.1821C24.3942 33.1821 23.4489 32.7954 22.6647 32.022C21.8806 31.2378 21.4885 30.2925 21.4885 29.186C21.4885 28.0796 21.8806 27.1343 22.6647 26.3501C23.4489 25.5659 24.3942 25.1738 25.5007 25.1738ZM48.5749 25.1899C48.5749 23.8579 49.0475 22.7246 49.9929 21.79C50.9382 20.8447 52.0768 20.3721 53.4089 20.3721V28.2998V33.1821C53.4089 34.5142 52.9362 35.6528 51.9909 36.5981C51.0563 37.5327 49.923 38 48.591 38V37.2588C47.5275 37.6992 46.3674 37.9194 45.1105 37.9194C42.7258 37.9194 40.6364 37.1084 38.8425 35.4863C38.155 34.874 37.4997 33.9717 36.8766 32.7793C36.2643 31.5762 35.9582 30.0132 35.9582 28.0903V25.1899C35.9582 23.8579 36.4308 22.7246 37.3762 21.79C38.3215 20.8447 39.4601 20.3721 40.7922 20.3721V28.0903C40.7922 29.8091 41.2541 31.1089 42.1779 31.9897C42.9943 32.731 43.9719 33.1016 45.1105 33.1016C45.7121 33.1016 46.4372 32.9136 47.2858 32.5376C48.1452 32.1616 48.5749 31.4204 48.5749 30.314V25.1899ZM62.384 20.3398C63.6623 20.3398 64.8976 20.6836 66.09 21.3711C67.2824 22.0586 68.1901 23.0684 68.8132 24.4004L64.6076 27.478C64.6076 26.7476 64.4465 26.2212 64.1242 25.8989C63.8127 25.5767 63.4743 25.3779 63.1091 25.3027C62.7546 25.2168 62.5129 25.1738 62.384 25.1738C61.7287 25.1738 61.1594 25.394 60.676 25.8345C60.1389 26.3716 59.8703 27.1558 59.8703 28.187V38C58.5383 38 57.3996 37.5273 56.4543 36.582C55.509 35.6367 55.0363 34.498 55.0363 33.166V25.1738C55.0363 23.8418 55.5036 22.7085 56.4382 21.7739C57.3835 20.8394 58.5222 20.3721 59.8542 20.3721V20.791C60.6599 20.4902 61.5031 20.3398 62.384 20.3398ZM99.1455 14.8936V38C97.8134 38 96.6748 37.5273 95.7294 36.582C94.7841 35.6367 94.3115 34.498 94.3115 33.166V26.8818L90.8149 35.583C90.1166 37.1191 88.9296 37.9248 87.2539 38C85.5673 37.9248 84.3803 37.1191 83.6928 35.583L80.1801 26.8818V33.166C80.1801 34.498 79.7075 35.6367 78.7622 36.582C77.8276 37.5273 76.6943 38 75.3623 38V19.7114C75.3623 18.3901 75.8295 17.2568 76.7641 16.3115C77.7094 15.3662 78.8481 14.8936 80.1801 14.8936L87.2539 32.022L92.6035 19.2441C94.1074 16.3438 96.288 14.8936 99.1455 14.8936ZM113.97 20.3721C115.302 20.3721 116.44 20.8447 117.386 21.79C118.331 22.7246 118.804 23.8579 118.804 25.1899V33.166C118.804 34.498 118.331 35.6367 117.386 36.582C116.44 37.5273 115.302 38 113.97 38V37.3232V36.856C112.627 37.6724 111.187 38.0806 109.651 38.0806C108.921 38.0806 108.19 37.9785 107.46 37.7744C105.193 37.1084 103.491 35.7173 102.352 33.6011C101.289 31.5063 101.068 29.2988 101.691 26.9785C102.422 24.583 103.781 22.8052 105.768 21.645C107.755 20.4741 109.909 20.1787 112.229 20.7588C112.852 20.9307 113.433 21.1724 113.97 21.4839V20.3721ZM113.341 30.2495C113.631 29.1538 113.545 28.1494 113.083 27.2363C112.632 26.3232 111.913 25.7109 110.924 25.3994C110.623 25.3242 110.323 25.2866 110.022 25.2866C109.206 25.2866 108.454 25.5605 107.766 26.1084C107.089 26.6455 106.611 27.3706 106.332 28.2837C106.042 29.3687 106.144 30.3945 106.638 31.3613C107.122 32.2637 107.831 32.8545 108.765 33.1338C109.764 33.3809 110.693 33.2358 111.553 32.6987C112.412 32.1509 113.008 31.3345 113.341 30.2495ZM134.562 34.2456C135.239 34.9976 135.4 35.814 135.046 36.6948C134.691 37.5649 134.025 38 133.048 38C132.478 38 131.968 37.7905 131.517 37.3716L125.233 31.2646V38C123.901 38 122.762 37.5273 121.817 36.582C120.882 35.6367 120.415 34.498 120.415 33.166V19.6953C120.415 18.3633 120.882 17.2246 121.817 16.2793C122.762 15.334 123.901 14.8613 125.233 14.8613V25.4155L129.793 20.9844C130.244 20.5762 130.754 20.3721 131.324 20.3721C132.301 20.3721 132.967 20.8071 133.322 21.6772C133.676 22.5474 133.515 23.3638 132.838 24.1265L128.504 28.3481L134.562 34.2456ZM150.821 27.2202C150.821 27.231 150.821 27.2471 150.821 27.2686C151.003 28.2568 150.789 29.1108 150.176 29.8306C149.575 30.5503 148.774 30.9263 147.775 30.9585C146.583 30.9585 145.337 30.9585 144.037 30.9585C142.748 30.9478 141.642 30.9424 140.718 30.9424C139.805 30.9316 139.327 30.9263 139.284 30.9263C139.413 31.2378 139.584 31.5332 139.799 31.8125C140.444 32.6074 141.249 33.0532 142.216 33.1499C142.957 33.2144 143.656 33.0479 144.311 32.6504C144.698 32.4033 145.117 32.2744 145.568 32.2637H145.81C147.013 32.3604 147.765 32.9189 148.065 33.9395C148.366 34.96 148.044 35.8462 147.099 36.5981C146.218 37.1997 145.192 37.6187 144.021 37.855C143.29 37.9946 142.544 38.0322 141.781 37.9678C139.439 37.7207 137.517 36.6626 136.013 34.7935C134.573 32.9243 133.95 30.7974 134.144 28.4126C134.38 26.0171 135.368 24.0298 137.108 22.4507C138.924 20.8716 141.008 20.1733 143.36 20.356C143.973 20.4097 144.574 20.5332 145.165 20.7266C146.014 21.0059 146.792 21.4141 147.501 21.9512C149.242 23.3047 150.348 25.061 150.821 27.2202ZM139.3 27.4619L145.906 27.478C145.337 26.1353 144.343 25.3672 142.925 25.1738C142.624 25.1416 142.324 25.1523 142.023 25.2061C141.4 25.3242 140.831 25.6089 140.315 26.0601C139.874 26.4468 139.536 26.9141 139.3 27.4619ZM160.054 20.3398C161.332 20.3398 162.567 20.6836 163.76 21.3711C164.952 22.0586 165.86 23.0684 166.483 24.4004L162.277 27.478C162.277 26.7476 162.116 26.2212 161.794 25.8989C161.482 25.5767 161.144 25.3779 160.779 25.3027C160.424 25.2168 160.183 25.1738 160.054 25.1738C159.398 25.1738 158.829 25.394 158.346 25.8345C157.809 26.3716 157.54 27.1558 157.54 28.187V38C156.208 38 155.069 37.5273 154.124 36.582C153.179 35.6367 152.706 34.498 152.706 33.166V25.1738C152.706 23.8418 153.173 22.7085 154.108 21.7739C155.053 20.8394 156.192 20.3721 157.524 20.3721V20.791C158.33 20.4902 159.173 20.3398 160.054 20.3398Z" fill="white"/>
</svg>
